<svg width="78" height="36" viewBox="0 0 78 36" fill="none" xmlns="http://www.w3.org/2000/svg">
<path d="M0 0H73.3837C75.5547 0 77.0069 2.23455 76.1251 4.21842L70 18L76.1251 31.7816C77.0069 33.7654 75.5547 36 73.3837 36H0V0Z" fill="#ED685C"/>
<path d="M28.95 23H26.99L22.552 16.294V23H20.592V13.214H22.552L26.99 19.934V13.214H28.95V23ZM38.0969 18.954C38.0969 19.234 38.0782 19.486 38.0409 19.71H32.3709C32.4176 20.27 32.6136 20.7087 32.9589 21.026C33.3042 21.3433 33.7289 21.502 34.2329 21.502C34.9609 21.502 35.4789 21.1893 35.7869 20.564H37.9009C37.6769 21.3107 37.2476 21.9267 36.6129 22.412C35.9782 22.888 35.1989 23.126 34.2749 23.126C33.5282 23.126 32.8562 22.9627 32.2589 22.636C31.6709 22.3 31.2089 21.8287 30.8729 21.222C30.5462 20.6153 30.3829 19.9153 30.3829 19.122C30.3829 18.3193 30.5462 17.6147 30.8729 17.008C31.1996 16.4013 31.6569 15.9347 32.2449 15.608C32.8329 15.2813 33.5096 15.118 34.2749 15.118C35.0122 15.118 35.6702 15.2767 36.2489 15.594C36.8369 15.9113 37.2896 16.364 37.6069 16.952C37.9336 17.5307 38.0969 18.198 38.0969 18.954ZM36.0669 18.394C36.0576 17.89 35.8756 17.4887 35.5209 17.19C35.1662 16.882 34.7322 16.728 34.2189 16.728C33.7336 16.728 33.3229 16.8773 32.9869 17.176C32.6602 17.4653 32.4596 17.8713 32.3849 18.394H36.0669ZM50.2795 15.244L48.0115 23H45.8975L44.4835 17.582L43.0695 23H40.9415L38.6595 15.244H40.6475L42.0195 21.152L43.5035 15.244H45.5755L47.0315 21.138L48.4035 15.244H50.2795Z" fill="white"/>
</svg>
